<?xml version="1.0" encoding="utf-8"?>
<!-- Generator: Adobe Illustrator 25.0.0, SVG Export Plug-In . SVG Version: 6.00 Build 0)  -->
<svg version="1.1" id="Layer_1" xmlns="http://www.w3.org/2000/svg" xmlns:xlink="http://www.w3.org/1999/xlink" x="0px" y="0px"
	 viewBox="0 0 616.8 351.4" style="enable-background:new 0 0 616.8 351.4;" xml:space="preserve">
<style type="text/css">
	.st0{fill:none;stroke:#231F20;stroke-miterlimit:10;}
	.st1{fill:#2E3192;}
	.st2{fill:none;stroke:#231F20;stroke-width:5;stroke-miterlimit:10;}
	.st3{fill:#2E3192;stroke:#2E3192;stroke-miterlimit:10;}
	.st4{fill:#FF4B4C;}
</style>
<g id="Layer_2_1_">
	<g id="Layer_1-2">
		<line class="st0" x1="149.9" y1="18.6" x2="13.9" y2="350.5"/>
		<polygon class="st0" points="144,4.5 285.8,349.3 2.3,349.3 		"/>
		<polygon class="st1" points="173.2,175.4 230.6,315.2 115.7,315.2 		"/>
		<line class="st2" x1="88.8" y1="167.5" x2="13.7" y2="350.4"/>
		<line class="st2" x1="99.5" y1="167.5" x2="24.3" y2="350.4"/>
		<line class="st2" x1="110.8" y1="167.5" x2="35.7" y2="350.4"/>
		<line class="st2" x1="122.3" y1="167.5" x2="47.1" y2="350.4"/>
		<line class="st2" x1="133.7" y1="167.5" x2="58.5" y2="350.4"/>
		<line class="st0" x1="155.2" y1="31.5" x2="24.5" y2="350.5"/>
		<line class="st0" x1="160.9" y1="45.4" x2="36.6" y2="348.7"/>
		<line class="st0" x1="166.6" y1="59.3" x2="48.3" y2="348"/>
		<line class="st0" x1="172.3" y1="73.2" x2="59.1" y2="349.4"/>
		<line class="st2" x1="77.5" y1="167.5" x2="2.3" y2="350.4"/>
		<path class="st3" d="M583.8,232.6c1-1.2,1.9-2.3,2.8-3.5l-196-201.1c-1.2,0.9-2.4,1.8-3.6,2.7L583.8,232.6z"/>
		<path class="st3" d="M610,184.4c0.5-1.6,1-3.3,1.4-4.9L440.9,4.5c-1.7,0.4-3.3,0.8-5,1.3L610,184.4z"/>
		<path class="st3" d="M594.2,218.2c0.8-1.3,1.6-2.6,2.4-3.9l-191-196c-1.3,0.8-2.7,1.5-4,2.3L594.2,218.2z"/>
		<path class="st3" d="M603,202.3c0.7-1.4,1.3-2.9,2-4.4L422.3,10.4c-1.5,0.6-3,1.2-4.4,1.9L603,202.3z"/>
		<path class="st3" d="M614.6,164.2c0.3-1.9,0.5-3.8,0.8-5.6L461.9,1c-1.9,0.2-3.8,0.4-5.6,0.6L614.6,164.2z"/>
		<path class="st3" d="M573.5,243.8l1.6-1.6l-197.9-203l-1.6,1.5c-0.5,0.5-1,1-1.6,1.6l197.9,203L573.5,243.8z"/>
		<path class="st3" d="M616.3,140.9c0-2.2-0.1-4.4-0.2-6.6L486.1,0.9c-2.2-0.2-4.4-0.3-6.6-0.4L616.3,140.9z"/>
		<path class="st3" d="M507.5,4.3l105.7,108.5c-0.6-2.9-1.3-5.7-2.1-8.6L516,6.6C513.2,5.8,510.4,5,507.5,4.3z"/>
		<path class="st3" d="M463,283.5c2.2,0.2,4.4,0.3,6.6,0.4L332.8,143.5c0,2.2,0.1,4.4,0.2,6.6L463,283.5z"/>
		<path class="st3" d="M487.3,283.4c1.9-0.2,3.8-0.4,5.6-0.6L334.5,120.3c-0.3,1.9-0.5,3.7-0.8,5.6L487.3,283.4z"/>
		<path class="st3" d="M597.6,71.8c-12-20.8-29-38.3-49.5-50.8L597.6,71.8z"/>
		<path class="st3" d="M433.1,277.8c2.8,0.9,5.6,1.6,8.5,2.3L335.9,171.6c0.6,2.9,1.3,5.7,2.1,8.5L433.1,277.8z"/>
		<path class="st3" d="M351.5,212.7c12,20.8,29,38.3,49.5,50.8L351.5,212.7z"/>
		<path class="st3" d="M543.5,266.1c1.3-0.7,2.7-1.5,4-2.3L354.9,66.2c-0.8,1.3-1.6,2.6-2.4,3.9L543.5,266.1z"/>
		<path class="st3" d="M558.5,256.5c1.2-0.9,2.4-1.8,3.6-2.7L365.3,51.9c-1,1.2-1.9,2.3-2.8,3.5L558.5,256.5z"/>
		<path class="st3" d="M508.2,280c1.7-0.4,3.3-0.8,5-1.3l-174-178.6c-0.5,1.6-1,3.3-1.4,4.9L508.2,280z"/>
		<path class="st3" d="M526.8,274c1.5-0.6,3-1.2,4.4-1.9l-185.2-190c-0.7,1.5-1.3,2.9-2,4.4L526.8,274z"/>
		<path class="st4" d="M610.6,309.4l5.7-3.2c-18.7-5.6-42.4-5.4-60.8,0.5c-16.6,5.1-34.4,5.1-51,0c-19-6.1-43.5-6.1-62.5,0
			c-16.6,5.1-34.4,5.1-51,0c-18.4-6-42.1-6.1-60.8-0.5l5.7,3.2c7.8-2.2,15.8-3.3,23.9-3.3c8.6,0,17.3,1.2,25.5,3.8
			c20.4,6.1,42.1,6.1,62.4,0c16.6-5.1,34.4-5.1,51,0c19,6.1,43.5,6.1,62.4,0C577.3,305,594.4,304.8,610.6,309.4z"/>
		<path class="st4" d="M336,326.8c16.2-4.6,33.3-4.4,49.4,0.5c19,6.1,43.5,6.1,62.4,0c16.6-5.1,34.4-5.1,51,0
			c20.4,6.1,42.1,6.1,62.4,0c16.1-4.9,33.2-5.1,49.4-0.5l5.7-3.2c-18.7-5.6-42.4-5.4-60.8,0.5c-16.6,5.1-34.4,5.1-51,0
			c-19-6.1-43.5-6.1-62.5,0c-16.6,5.1-34.4,5.1-51,0c-18.4-6-42.1-6.1-60.8-0.5L336,326.8z"/>
		<path class="st4" d="M498.8,344.7c20.4,6.1,42.1,6.1,62.4,0c15.2-4.9,33.9-5.1,49.4-0.5l5.7-3.2c-18.7-5.6-42.4-5.4-60.8,0.5
			c-16.6,5.1-34.4,5.1-51,0c-19-6.1-43.5-6.1-62.5,0c-16.6,5.1-34.4,5.1-51,0c-18.4-6-42.1-6.1-60.8-0.5l5.7,3.2
			c16.2-4.6,33.3-4.4,49.4,0.5c19,6.1,43.5,6.1,62.4,0C464.4,339.6,482.2,339.6,498.8,344.7L498.8,344.7z"/>
	</g>
</g>
</svg>
